<svg width="19" height="19" viewBox="0 0 19 19" fill="none" xmlns="http://www.w3.org/2000/svg">
<path d="M15.8776 2.55011C16.2858 2.14215 16.948 2.14215 17.3561 2.55011C17.7643 2.95827 17.7643 3.62046 17.3561 4.02861L9.54272 11.8425C9.13456 12.2505 8.47237 12.2505 8.06422 11.8425L5.10397 8.88206C4.69581 8.4739 4.69581 7.81192 5.10397 7.40377C5.51193 6.99561 6.17412 6.99561 6.58226 7.40377L8.80347 9.62498L15.8779 2.55L15.8776 2.55011Z" fill="#FF1880"/>
<path d="M15.9222 8.65496C15.8931 8.08014 16.3357 7.58933 16.9107 7.56005C17.4856 7.53114 17.9766 7.97375 18.0057 8.54858C18.0456 9.33968 17.9827 10.1289 17.8199 10.891C17.6656 11.6171 17.4161 12.3303 17.0782 13.0103C17.053 13.0769 17.0202 13.1407 16.9819 13.2006C15.8437 15.3656 13.9429 16.8804 11.7811 17.5801C9.62401 18.2785 7.20127 18.1653 5.01155 17.0796C4.94348 17.0532 4.87871 17.0204 4.81823 16.9814C2.65317 15.8432 1.1382 13.9425 0.43873 11.7807C-0.259742 9.62301 -0.146749 7.19985 0.940171 5.00956C0.966002 4.94232 0.998803 4.87876 1.03714 4.81931C2.17535 2.65363 4.07533 1.13886 6.23792 0.438554C8.42759 -0.270361 10.8915 -0.142622 13.1066 0.988766C13.6185 1.24994 13.8217 1.87785 13.5605 2.38996C13.2995 2.90186 12.6714 3.10501 12.1595 2.84384C10.4588 1.9748 8.56296 1.87787 6.87522 2.4246C5.19519 2.96867 3.72042 4.15239 2.85096 5.84695L2.8442 5.85986C1.97516 7.56099 1.87902 9.45624 2.42496 11.1431C2.9672 12.8191 4.14718 14.2914 5.83561 15.1622L5.86021 15.1745C7.56154 16.0436 9.45679 16.1397 11.144 15.5938C12.8236 15.0503 14.2988 13.866 15.169 12.1721L15.1752 12.1592C15.4481 11.6251 15.6506 11.0513 15.7771 10.4574C15.9036 9.86515 15.9532 9.25752 15.9224 8.65457L15.9222 8.65496Z" fill="#FF1880"/>
</svg>
