<svg width="188" height="20" viewBox="0 0 188 20" fill="none" xmlns="http://www.w3.org/2000/svg">
<g clip-path="url(#clip0_0_2623)">
<path d="M-6.50974e-05 18.3565V0.976922C-6.50974e-05 0.765225 0.0379558 0.619843 0.111621 0.540775C0.185287 0.461707 0.320737 0.420898 0.51797 0.420898H6.52053C7.27382 0.420898 7.99384 0.512719 8.67346 0.69891C9.35309 0.882551 10.0018 1.17842 10.6173 1.58396C11.2327 1.9895 11.7246 2.56592 12.093 3.31324C12.4613 4.06056 12.6467 4.9456 12.6467 5.96838C12.6467 8.73319 11.3991 10.5033 8.90634 11.2761L13.312 18.1958C13.5259 18.6702 13.3762 18.91 12.87 18.91H11.0498C10.6886 18.91 10.3844 18.7263 10.1396 18.3565L5.88368 11.5949H2.97745V18.3565C2.97745 18.5682 2.93943 18.7136 2.86576 18.7926C2.7921 18.8717 2.65665 18.9125 2.45941 18.9125H0.515594C0.31836 18.9125 0.182911 18.8768 0.109245 18.8079C0.0355795 18.7365 -0.00244141 18.5886 -0.00244141 18.359L-6.50974e-05 18.3565ZM6.39696 3.09134H2.97745V8.92704H6.39696C8.64495 8.92704 9.76894 7.93997 9.76894 5.96838C9.76894 3.99679 8.64495 3.08879 6.39696 3.08879V3.09134Z" fill="#FF1880"/>
<path d="M28.3707 16.4282C26.6479 18.3131 24.5733 19.2543 22.1448 19.2543C19.7162 19.2543 17.6488 18.3131 15.8951 16.4282C14.1722 14.5612 13.312 12.3091 13.312 9.66668C13.312 7.02429 14.1722 4.77214 15.8951 2.90513C17.6512 1.02026 19.7352 0.0791016 22.1448 0.0791016C24.5543 0.0791016 26.6479 1.02026 28.3707 2.90513C30.1101 4.77214 30.9799 7.02429 30.9799 9.66668C30.9799 12.3091 30.1101 14.5612 28.3707 16.4282ZM22.1448 16.4818C23.8177 16.4818 25.2126 15.7957 26.3271 14.4209C27.4249 13.0666 27.9762 11.4801 27.9762 9.66668C27.9762 7.85323 27.4273 6.25147 26.3271 4.91242C25.2435 3.55807 23.8509 2.87962 22.1448 2.87962C20.4386 2.87962 19.0603 3.56573 17.9624 4.94048C16.8622 6.27953 16.3133 7.85578 16.3133 9.66923C16.3133 11.4827 16.8622 13.0334 17.9624 14.4235C19.0603 15.7982 20.4552 16.4843 22.1448 16.4843V16.4818Z" fill="#FF1880"/>
<path d="M31.4955 16.4001L32.2345 15.0789C32.3486 14.8136 32.4816 14.6835 32.629 14.6835C32.7098 14.6835 32.8167 14.7269 32.9498 14.8162C34.4587 15.8721 36.1578 16.4001 38.0422 16.4001C40.535 16.4001 41.7825 15.5201 41.7825 13.7577C41.7825 12.9134 41.4451 12.2911 40.7726 11.8958C40.1001 11.5004 38.969 11.1867 37.3768 10.9571C35.8346 10.7454 34.5467 10.3246 33.513 9.68951C32.2654 8.91414 31.6428 7.65671 31.6428 5.91213C31.6428 4.60879 32.0943 3.36921 32.9973 2.1883C34.0643 0.816094 35.7277 0.127441 37.9923 0.127441C39.19 0.127441 40.2308 0.295779 41.1171 0.629903C41.9869 0.928319 42.9635 1.43078 44.0448 2.13474C44.3062 2.29287 44.3489 2.54793 44.1683 2.89991L43.4293 4.2211C43.2986 4.48636 43.1584 4.61644 43.0111 4.61644C42.9445 4.61644 42.8471 4.57308 42.7164 4.48381C41.2573 3.44573 39.7627 2.92541 38.2371 2.92541C36.8588 2.92541 35.8916 3.20852 35.3332 3.76965C34.7914 4.31547 34.5205 4.99392 34.5205 5.80245C34.5205 6.6824 34.9221 7.28178 35.7253 7.59805C36.4311 7.88116 37.4481 8.11836 38.7765 8.31221C40.4328 8.5239 41.7778 8.9626 42.8115 9.6334C44.0424 10.4088 44.6578 11.73 44.6578 13.5944C44.6578 15.1452 44.0994 16.4638 42.9849 17.5555C41.8681 18.6471 40.3021 19.1929 38.2846 19.1929C35.6279 19.1929 33.4037 18.5247 31.6167 17.1856C31.3529 17.0096 31.3125 16.7469 31.4931 16.3924L31.4955 16.4001Z" fill="#FF1880"/>
<path d="M44.1685 18.3563L52.4856 0.553358C52.5188 0.499796 52.5664 0.418178 52.6329 0.303402C52.6971 0.188627 52.747 0.11466 52.7802 0.0789525C52.8135 0.0432446 52.8539 0.0253906 52.9038 0.0253906H52.9775C53.1082 0.0253906 53.2555 0.20138 53.4195 0.553358L61.7365 18.3538C61.8007 18.494 61.8007 18.6216 61.7365 18.7363C61.67 18.8511 61.5654 18.9072 61.4157 18.9072H59.1274C58.8327 18.9072 58.6022 18.7236 58.4382 18.3538L56.839 14.7345H49.0637L47.4644 18.3538C47.3504 18.5833 47.2506 18.7338 47.1698 18.8027C47.0866 18.8741 46.9559 18.9072 46.7753 18.9072H44.4869C44.3396 18.9072 44.2327 18.8511 44.1661 18.7363C44.0996 18.6216 44.0996 18.494 44.1661 18.3538L44.1685 18.3563ZM52.9276 5.44024L50.0974 12.0156H55.8314L52.9775 5.44024H52.9276Z" fill="#FF1880"/>
<path d="M67.8151 16.3747L68.5541 15.0535C68.6681 14.7882 68.8012 14.6581 68.9486 14.6581C69.0293 14.6581 69.1363 14.7015 69.2694 14.7908C70.7783 15.8467 72.4774 16.3747 74.3618 16.3747C76.8545 16.3747 78.1021 15.4947 78.1021 13.7323C78.1021 12.888 77.7647 12.2657 77.0922 11.8704C76.4197 11.475 75.2885 11.1613 73.6964 10.9318C72.1542 10.7201 70.8662 10.2992 69.8325 9.66412C68.585 8.88875 67.9624 7.63132 67.9624 5.88673C67.9624 4.5834 68.4139 3.34382 69.3169 2.16291C70.3838 0.790704 72.0473 0.102051 74.3119 0.102051C75.5095 0.102051 76.5504 0.270388 77.4367 0.604512C78.3065 0.902928 79.2831 1.40539 80.3643 2.10935C80.6257 2.26748 80.6685 2.52254 80.4879 2.87452L79.7489 4.19571C79.6182 4.46097 79.478 4.59105 79.3306 4.59105C79.2641 4.59105 79.1667 4.54769 79.036 4.45842C77.5769 3.42034 76.0822 2.90002 74.5566 2.90002C73.1784 2.90002 72.2112 3.18313 71.6528 3.74426C71.111 4.29008 70.8401 4.96853 70.8401 5.77706C70.8401 6.65701 71.2417 7.25639 72.0449 7.57266C72.7506 7.85577 73.7677 8.09297 75.0961 8.28682C76.7523 8.49851 78.0973 8.93721 79.131 9.60801C80.362 10.3834 80.9774 11.7046 80.9774 13.569C80.9774 15.1198 80.419 16.4384 79.3045 17.5301C78.1876 18.6217 76.6217 19.1675 74.6042 19.1675C71.9475 19.1675 69.7232 18.4993 67.9362 17.1602C67.6725 16.9842 67.6321 16.7215 67.8127 16.367L67.8151 16.3747Z" fill="#FF1880"/>
<path d="M82.3582 18.3285V0.951531C82.3582 0.739834 82.3962 0.594452 82.4698 0.515384C82.5435 0.436317 82.679 0.395508 82.8762 0.395508H93.9237C94.1375 0.395508 94.2801 0.436317 94.3538 0.515384C94.4274 0.594452 94.4655 0.739834 94.4655 0.951531V2.56349C94.4655 2.77519 94.4274 2.92057 94.3538 2.99964C94.2801 3.0787 94.1351 3.11951 93.9237 3.11951H85.3357V8.19004H93.5553C93.7692 8.19004 93.9118 8.23085 93.9854 8.30992C94.0591 8.38898 94.0971 8.54457 94.0971 8.77157V10.3835C94.0971 10.5952 94.0591 10.7406 93.9854 10.8197C93.9118 10.8987 93.7668 10.9395 93.5553 10.9395H85.3357V16.1427H93.9237C94.1375 16.1427 94.2801 16.1835 94.3538 16.2626C94.4274 16.3416 94.4655 16.4972 94.4655 16.7242V18.3362C94.4655 18.5479 94.4274 18.6933 94.3538 18.7723C94.2801 18.8514 94.1351 18.8922 93.9237 18.8922H82.8762C82.6623 18.8922 82.5221 18.8514 82.458 18.7723C82.3914 18.6933 82.3605 18.5479 82.3605 18.3362L82.3582 18.3285Z" fill="#FF1880"/>
<path d="M96.0884 18.3285V0.951531C96.0884 0.739834 96.1264 0.594452 96.2001 0.515384C96.2737 0.436317 96.4092 0.395508 96.6064 0.395508H98.5502C98.7475 0.395508 98.8829 0.436317 98.9566 0.515384C99.0303 0.594452 99.0683 0.739834 99.0683 0.951531V16.1376H106.696C106.893 16.1376 107.029 16.1784 107.103 16.2575C107.176 16.3365 107.214 16.4921 107.214 16.7191V18.3311C107.214 18.5428 107.176 18.6882 107.103 18.7672C107.029 18.8463 106.893 18.8871 106.696 18.8871H96.6064C96.4092 18.8871 96.2737 18.8463 96.2001 18.7672C96.1264 18.6882 96.0884 18.5428 96.0884 18.3311V18.3285Z" fill="#FF1880"/>
<path d="M113.485 19.2798H113.412C113.362 19.2798 113.321 19.267 113.288 19.239C113.255 19.2135 113.21 19.1421 113.153 19.0273C113.096 18.9125 113.041 18.8207 112.993 18.7493L104.676 0.951422C104.61 0.811141 104.61 0.683613 104.676 0.568837C104.741 0.454062 104.847 0.397949 104.997 0.397949H107.286C107.58 0.397949 107.811 0.58159 107.975 0.951422L113.462 13.1788V13.2043L118.948 0.951422C119.112 0.58159 119.343 0.397949 119.638 0.397949H121.926C122.073 0.397949 122.18 0.459163 122.247 0.58159C122.311 0.704017 122.311 0.828995 122.247 0.951422L113.93 18.7518C113.896 18.8232 113.856 18.8972 113.806 18.9763C113.756 19.0553 113.721 19.1115 113.694 19.1472C113.671 19.1829 113.64 19.2135 113.609 19.239C113.576 19.2645 113.535 19.2798 113.485 19.2798Z" fill="#FF1880"/>
<path d="M118.504 18.3284L126.821 0.527967C126.855 0.474405 126.902 0.392787 126.969 0.278012C127.033 0.163236 127.083 0.0892698 127.116 0.0535619C127.149 0.017854 127.19 0 127.24 0H127.313C127.444 0 127.591 0.175989 127.755 0.527967L136.072 18.3284C136.136 18.4687 136.136 18.5962 136.072 18.711C136.006 18.8257 135.901 18.8818 135.751 18.8818H133.463C133.168 18.8818 132.938 18.6982 132.774 18.3284L131.175 14.7091H123.399L121.8 18.3284C121.686 18.5579 121.586 18.7084 121.505 18.7773C121.422 18.8487 121.292 18.8818 121.111 18.8818H118.823C118.675 18.8818 118.568 18.8257 118.502 18.711C118.435 18.5962 118.435 18.4687 118.502 18.3284H118.504ZM127.263 5.4123L124.433 11.9877H130.167L127.313 5.4123H127.263Z" fill="#FF1880"/>
<path d="M144.218 11.1181V9.50611C144.218 9.27656 144.256 9.12862 144.33 9.05721C144.404 8.98579 144.539 8.95264 144.736 8.95264H150.741C150.938 8.95264 151.074 8.99345 151.148 9.07251C151.221 9.15158 151.259 9.29696 151.259 9.50866V15.505C151.259 15.857 151.129 16.1733 150.865 16.4564C150.028 17.3185 149.028 17.9969 147.863 18.4892C146.682 18.9815 145.478 19.2289 144.247 19.2289C141.818 19.2289 139.744 18.2877 138.021 16.4028C136.298 14.5358 135.438 12.2837 135.438 9.64129C135.438 6.9989 136.298 4.74675 138.021 2.87974C139.744 0.99487 141.818 0.0537109 144.247 0.0537109C145.428 0.0537109 146.592 0.296015 147.74 0.780622C148.888 1.26523 149.871 1.92838 150.694 2.77517C150.824 2.95115 150.881 3.08378 150.865 3.1705C150.848 3.25977 150.767 3.38985 150.618 3.56584L149.486 4.88703C149.239 5.18545 148.995 5.2033 148.747 4.9406C147.5 3.55054 146 2.85423 144.244 2.85423C142.488 2.85423 141.184 3.54034 140.086 4.91509C138.986 6.25414 138.437 7.83039 138.437 9.64384C138.437 11.4573 138.986 13.0157 140.086 14.3726C141.184 15.7448 142.571 16.4334 144.244 16.4334C145.77 16.4334 147.115 15.9412 148.279 14.9541V11.6792H144.736C144.539 11.6792 144.404 11.6435 144.33 11.5746C144.256 11.5058 144.218 11.3553 144.218 11.1257V11.1181Z" fill="#FF1880"/>
<path d="M152.88 18.3285V0.951531C152.88 0.739834 152.918 0.594452 152.992 0.515384C153.065 0.436317 153.201 0.395508 153.398 0.395508H164.445C164.659 0.395508 164.802 0.436317 164.876 0.515384C164.949 0.594452 164.987 0.739834 164.987 0.951531V2.56349C164.987 2.77519 164.949 2.92057 164.876 2.99964C164.802 3.0787 164.657 3.11951 164.445 3.11951H155.857V8.19004H164.077C164.291 8.19004 164.434 8.23085 164.507 8.30992C164.581 8.38898 164.619 8.54457 164.619 8.77157V10.3835C164.619 10.5952 164.581 10.7406 164.507 10.8197C164.434 10.8987 164.289 10.9395 164.077 10.9395H155.857V16.1427H164.445C164.659 16.1427 164.802 16.1835 164.876 16.2626C164.949 16.3416 164.987 16.4972 164.987 16.7242V18.3362C164.987 18.5479 164.949 18.6933 164.876 18.7723C164.802 18.8514 164.657 18.8922 164.445 18.8922H153.398C153.184 18.8922 153.044 18.8514 152.98 18.7723C152.913 18.6933 152.882 18.5479 152.882 18.3362L152.88 18.3285Z" fill="#FF1880"/>
<path d="M165.873 18.3285L167.938 0.290914C167.955 0.132778 168.029 0.0537109 168.159 0.0537109H168.331C168.445 0.0537109 168.544 0.132778 168.625 0.290914L176.574 14.5537L184.525 0.290914C184.606 0.132778 184.706 0.0537109 184.82 0.0537109H184.991C185.122 0.0537109 185.195 0.132778 185.212 0.290914L187.279 18.3311C187.329 18.7009 187.156 18.8845 186.764 18.8845H184.82C184.623 18.8845 184.497 18.8488 184.44 18.78C184.383 18.7086 184.337 18.5606 184.304 18.3311L183.221 7.55493L177.265 18.6728C177.018 19.0427 176.831 19.2263 176.7 19.2263H176.453C176.305 19.2263 176.115 19.0427 175.887 18.6728L170.006 7.63399L168.849 18.3311C168.815 18.5606 168.765 18.7111 168.701 18.78C168.635 18.8514 168.504 18.8845 168.307 18.8845H166.363C165.952 18.8845 165.788 18.7009 165.871 18.3311L165.873 18.3285Z" fill="#FF1880"/>
</g>
<defs>
<clipPath id="clip0_0_2623">
<rect width="187.289" height="19.2797" fill="white"/>
</clipPath>
</defs>
</svg>
